Patient4_TMGait_0pt8_01_right_51_EMG.mot
version=1
nRows=13
nColumns=33
inDegrees=no
endheader
time	1LAddLong	2LGlutMax	3LGlutMed	4LIliopsoas	5LSemiMemb	6LBicFemLong	7LRecFem	8LVastMed	9LVastLat	10LGasMed	11LTibAnt	12lTibPost	13LPeroneusLong	14LSol	15LExtDigLong	16LFlexDigLong	17RAddLong	18RGlutMax	19RGlutMed	20RIliopsoas	21RSemiMemb	22RBicFemLong	23RRecFem	24RVastMed	25RVastLat	26RGasMed	27RTibAnt	28RTibPost	29RPeroneusLong	30RSol	31RExtDigLong	32RFlexDigLong
57.44	-0.010681	0.010071	0.15243	0.030975	-0.1088	0.11139	0.037384	0.010986	0.013123	0.020599	0.000153	0.006714	0.28153	0.15778	-0.000763	-0.000916	0.009308	1.0359	0.2214	-0.092926	0.16235	-0.012665	-0.16129	0.040131	-0.028229	-0.011292	0.064545	-0.000458	-0.21255	-0.040894	-0.000916	0.015564
57.441	0.009766	-0.009766	0.076599	0.016327	-0.062256	-0.25162	0.049591	-0.000916	0.056152	0.021057	0.015106	-0.00824	0.30624	0.14343	0.046234	0.010681	-0.001526	0.99579	0.32318	-0.097046	0.15121	-0.025177	-0.12192	0.056	-0.022736	0.002747	-0.23377	0.012665	0.16449	-0.08667	-0.000153	0.016327
57.442	0.01358	-0.069885	-0.014038	0.024719	0.076141	-0.51849	0.061798	-0.005951	0.052338	0.019226	0.030212	-0.007477	-0.47867	0.15167	0.068054	0.004425	0.007324	0.85907	0.22369	-0.071716	0.15289	0.009155	0.034332	0.041046	-0.019379	0.01236	-0.45868	-0.001373	0.41596	-0.093384	-0.001373	0.014954
57.443	0.025787	-0.1033	0.010986	0.010986	0.18158	-0.18845	0.11398	0.013275	0.019531	0.057678	0.044098	-0.004272	-0.47867	-0.052185	-0.061035	-0.002594	0.003357	0.7486	0.37369	-0.14816	0.15595	-0.001526	0.20477	0.041962	-0.052338	0.013428	-0.5748	-0.000153	0.11871	-0.083466	-0.00061	0.009003
57.444	0.019073	-0.14679	0.11139	0.019073	0.15778	0.15366	0.10834	-0.028992	-0.015564	0.014191	0.049286	-0.00473	-0.26276	-0.20157	-0.082397	0.00412	-0.007477	0.65185	0.2739	-0.16647	0.15015	0.001526	0.26932	0.025177	-0.034637	0.010376	-0.20401	-0.002289	0.001678	-0.0177	0.00061	0.017242
57.445	0.00473	-0.13641	-0.010529	-0.002747	0.076599	0.15976	0.074768	-0.000916	-0.010986	-0.067444	0.010376	-0.008545	-0.51865	-0.031433	0.007019	-0.004578	-0.000458	0.58975	0.10361	-0.16769	0.13977	0.015564	0.23453	-0.03067	-0.060272	0.027466	-0.20386	-0.004883	0.24445	0.075378	-0.006104	0.015717
57.446	-0.006714	-0.094452	-0.048218	-0.006561	0.058594	0.090485	0.09491	0.004578	-0.01236	-0.14038	-0.074158	0.009308	-0.49301	0.12589	0.065918	0.008087	-0.00061	0.52948	0.036011	-0.086365	0.14114	0.02655	0.28656	-0.039825	-0.055695	0.023956	-0.2977	-0.00412	0.50797	0.031128	-0.000763	0.019379
57.447	-0.008087	-0.091705	-0.053711	-0.00885	0.050659	0.015564	0.088654	0.014343	-0.058899	-0.11978	-0.063171	0.001068	0.019684	0.14282	-0.083618	0.000305	0.00061	0.49896	0.060425	0.18051	0.13412	0.006866	0.28015	-0.029144	-0.051727	0.027771	-0.47775	-0.001678	0.41412	-0.033417	-0.001068	0.020294
57.448	-0.006866	-0.10056	0.12299	-0.001526	0.090332	-0.23956	0.10315	0.005341	-0.046387	-0.074158	0.041962	0.005188	-0.038147	0.11597	-0.0177	0.000458	-0.000916	0.4361	0.28854	0.36987	0.13962	0.005493	0.3064	-0.051422	-0.060272	0.031586	-0.42435	-0.00824	-0.14358	0.048523	-0.002594	0.019836
57.449	-0.00412	-0.15778	-0.014496	0.021973	0.10269	-0.2536	0.10895	-0.006714	-0.030975	-0.039368	0.067291	0.01358	-0.009613	0.1947	0.077362	0.012054	-0.004883	0.38849	0.70694	0.28168	0.14755	0.0177	0.26306	-0.084991	-0.051575	0.027924	-0.10346	-0.006256	-0.40131	0.13748	-0.00412	0.015411
57.45	0.00473	-0.20569	-0.065308	0.02533	0.056763	0.028381	0.046387	-0.006104	-0.012817	-0.007935	0.008392	0.004272	0.44739	0.076294	0.047913	0.003204	-0.007324	0.298	0.37918	0.14374	0.14587	0.002899	0.3688	-0.10239	-0.060883	0.031891	-0.18127	-0.003967	-0.37781	0.096893	-0.002747	0.014954
57.451	-0.003815	-0.18768	-0.11154	0.0177	0.008545	0.081177	-0.064545	-0.010223	0.02594	0.048828	-0.007782	0.000153	0.10941	-0.081177	0.033875	-0.002899	-0.000153	0.30289	0.21881	0.089111	0.14297	0.018768	0.32623	-0.084076	-0.059052	0.036926	-0.10834	-0.011749	-0.47043	0.062561	-0.002289	0.016174
57.452	-0.002594	-0.17807	-0.13062	0.022125	-0.019836	0.068207	-0.003204	-0.007324	0.055847	0.050812	0.001678	0.001984	0.033875	-0.059814	0.032654	-0.0737	-0.011444	0.2153	0.31189	-0.015106	0.14923	0.030212	0.14496	-0.041656	-0.079346	0.04425	-0.082092	-0.005798	-0.20966	0.087891	-0.001678	0.010834
